# Blender 5.2.1 LTS
# www.blender.org
mtllib Sketchfab_2020_11_16_17_15_28.mtl
o Cone1
v 0.000000 0.042506 -0.057235
v 0.000000 0.283606 -0.024481
v 0.040471 0.042506 -0.040471
v 0.017311 0.283606 -0.017311
v 0.057235 0.042506 0.000000
v 0.024481 0.283606 0.000000
v 0.040471 0.042506 0.040471
v 0.017311 0.283606 0.017311
v -0.000000 0.042506 0.057235
v -0.000000 0.283606 0.024481
v -0.040471 0.042506 0.040471
v -0.017311 0.283606 0.017311
v -0.057235 0.042506 -0.000000
v -0.024481 0.283606 -0.000000
v -0.040471 0.042506 -0.040471
v -0.017311 0.283606 -0.017311
v 0.008533 0.300162 -0.008533
v 0.000000 0.300162 -0.012068
v 0.012068 0.300162 0.000000
v 0.008533 0.300162 0.008533
v -0.000000 0.300162 0.012068
v -0.008533 0.300162 0.008533
v -0.012068 0.300162 -0.000000
v -0.008533 0.300162 -0.008533
v -0.024534 0.006093 0.057685
v -0.034256 -0.000000 0.067109
v -0.067619 -0.000000 0.033183
v -0.058138 0.006093 0.023441
v -0.047003 0.020789 0.019206
v -0.048257 0.026880 0.024014
v -0.024165 0.026880 0.048183
v -0.019656 0.020789 0.046817
v -0.057685 0.006093 -0.024534
v -0.067109 -0.000000 -0.034256
v -0.033183 -0.000000 -0.067619
v -0.023441 0.006093 -0.058138
v -0.019206 0.020789 -0.047003
v -0.024014 0.026880 -0.048257
v -0.048183 0.026880 -0.024165
v -0.046817 0.020789 -0.019656
v 0.057685 0.006093 0.024534
v 0.067109 -0.000000 0.034256
v 0.033183 -0.000000 0.067619
v 0.023441 0.006093 0.058138
v 0.019206 0.020789 0.047003
v 0.024014 0.026880 0.048257
v 0.048183 0.026880 0.024165
v 0.046817 0.020789 0.019656
v 0.024534 0.006093 -0.057685
v 0.034256 -0.000000 -0.067109
v 0.067619 -0.000000 -0.033183
v 0.058138 0.006093 -0.023441
v 0.047003 0.020789 -0.019206
v 0.048257 0.026880 -0.024014
v 0.024165 0.026880 -0.048183
v 0.019656 0.020789 -0.046817
v -0.091699 0.007575 0.072889
v -0.087404 0.000000 0.065656
v -0.065851 -0.000000 0.087292
v -0.072889 0.007575 0.091699
v -0.072889 0.007575 -0.091699
v -0.065656 0.000000 -0.087404
v -0.087292 -0.000000 -0.065851
v -0.091699 0.007575 -0.072889
v 0.091699 0.007575 -0.072889
v 0.087404 0.000000 -0.065656
v 0.065851 -0.000000 -0.087292
v 0.072889 0.007575 -0.091699
v 0.072889 0.007575 0.091699
v 0.065656 0.000000 0.087404
v 0.087292 -0.000000 0.065851
v 0.091699 0.007575 0.072889
v -0.071727 0.019305 0.090817
v -0.064438 0.026880 0.084373
v -0.084384 0.026880 0.064417
v -0.090817 0.019305 0.071727
v -0.090817 0.019305 -0.071727
v -0.084373 0.026880 -0.064438
v -0.064417 0.026880 -0.084384
v -0.071727 0.019305 -0.090817
v 0.071727 0.019305 -0.090817
v 0.064438 0.026880 -0.084373
v 0.084384 0.026880 -0.064417
v 0.090817 0.019305 -0.071727
v 0.090817 0.019305 0.071727
v 0.084373 0.026880 0.064438
v 0.064417 0.026880 0.084384
v 0.071727 0.019305 0.090817
v -0.036726 0.025180 0.063087
v -0.037040 0.029680 0.066642
v -0.063087 0.025180 0.036726
v -0.066642 0.029680 0.037040
v -0.055366 0.025180 0.055366
v -0.057972 0.029679 0.057972
v -0.058841 0.042506 0.034366
v -0.064602 0.038006 0.035906
v -0.034366 0.042506 0.058841
v -0.035906 0.038006 0.064602
v -0.051673 0.042506 0.051673
v -0.056197 0.038007 0.056197
v -0.063087 0.025180 -0.036726
v -0.066642 0.029680 -0.037040
v -0.036726 0.025180 -0.063087
v -0.037040 0.029680 -0.066642
v -0.055366 0.025180 -0.055366
v -0.057972 0.029679 -0.057972
v -0.034366 0.042506 -0.058841
v -0.035906 0.038006 -0.064602
v -0.058841 0.042506 -0.034366
v -0.064602 0.038006 -0.035906
v -0.051673 0.042506 -0.051673
v -0.056197 0.038007 -0.056197
v 0.063087 0.025180 0.036726
v 0.066642 0.029680 0.037040
v 0.036726 0.025180 0.063087
v 0.037040 0.029680 0.066642
v 0.055366 0.025180 0.055366
v 0.057972 0.029679 0.057972
v 0.034366 0.042506 0.058841
v 0.035906 0.038006 0.064602
v 0.058841 0.042506 0.034366
v 0.064602 0.038006 0.035906
v 0.051673 0.042506 0.051673
v 0.056197 0.038007 0.056197
v 0.036726 0.025180 -0.063087
v 0.037040 0.029680 -0.066642
v 0.063087 0.025180 -0.036726
v 0.066642 0.029680 -0.037040
v 0.055366 0.025180 -0.055366
v 0.057972 0.029679 -0.057972
v 0.058841 0.042506 -0.034366
v 0.064602 0.038006 -0.035906
v 0.034366 0.042506 -0.058841
v 0.035906 0.038006 -0.064602
v 0.051673 0.042506 -0.051673
v 0.056197 0.038007 -0.056197
vn -0.3660 0.1058 -0.9246
vn -0.3939 0.1077 -0.9128
vn -0.9128 0.1077 -0.3939
vn -0.9246 0.1058 -0.3660
vn 0.3660 0.1058 0.9246
vn 0.3939 0.1077 0.9128
vn 0.9128 0.1077 0.3939
vn 0.9246 0.1058 0.3660
vn -0.3660 0.1058 0.9246
vn -0.3939 0.1077 0.9128
vn 0.9246 0.1058 -0.3660
vn 0.9128 0.1077 -0.3939
vn 0.3939 0.1077 -0.9128
vn 0.3660 0.1058 -0.9246
vn -0.9128 0.1077 0.3939
vn -0.9246 0.1058 0.3660
vn -0.0000 -1.0000 -0.0000
vn 0.3002 -0.6296 -0.7166
vn -0.2944 -0.6296 -0.7190
vn -0.2894 -0.6296 -0.7210
vn 0.3052 -0.6296 -0.7144
vn -0.3002 -0.6296 0.7166
vn 0.2944 -0.6296 0.7190
vn 0.2894 -0.6296 0.7210
vn -0.3052 -0.6296 0.7144
vn -0.0000 1.0000 -0.0000
vn -0.7166 -0.6296 -0.3002
vn -0.7190 -0.6296 0.2944
vn -0.7210 -0.6296 0.2894
vn -0.7144 -0.6296 -0.3052
vn 0.7166 -0.6296 0.3002
vn 0.7190 -0.6296 -0.2944
vn 0.7210 -0.6296 -0.2894
vn 0.7144 -0.6296 0.3052
vn -0.7007 0.1346 -0.7007
vn -0.6598 0.3594 -0.6598
vn -0.0000 0.3594 -0.9332
vn -0.0000 0.1346 -0.9909
vn -0.0000 0.3594 0.9332
vn 0.6598 0.3594 0.6598
vn 0.3730 0.8495 0.3730
vn -0.0000 0.8495 0.5275
vn 0.3730 0.8495 -0.3730
vn -0.0000 0.8495 -0.5275
vn -0.3730 0.8495 -0.3730
vn -0.5275 0.8495 -0.0000
vn -0.3730 0.8495 0.3730
vn 0.5275 0.8495 -0.0000
vn -0.9332 0.3594 -0.0000
vn 0.9332 0.3594 -0.0000
vn 0.6598 0.3594 -0.6598
vn -0.6598 0.3594 0.6598
vn -0.9909 0.1346 -0.0000
vn -0.7007 0.1346 0.7007
vn -0.0000 0.1346 0.9909
vn 0.7007 0.1346 0.7007
vn 0.9909 0.1346 -0.0000
vn 0.7007 0.1346 -0.7007
vn -0.6770 0.2886 0.6770
vn -0.9498 0.2570 0.1783
vn -0.9455 0.2586 0.1977
vn 0.1783 0.2570 0.9498
vn 0.1977 0.2586 0.9455
vn 0.6770 0.2886 0.6770
vn -0.6770 0.2886 -0.6770
vn -0.9455 0.2586 -0.1977
vn -0.9498 0.2570 -0.1783
vn 0.9455 0.2586 0.1977
vn 0.9498 0.2570 0.1783
vn -0.1783 0.2570 0.9498
vn -0.1977 0.2586 0.9455
vn -0.1977 0.2586 -0.9455
vn -0.1783 0.2570 -0.9498
vn 0.1783 0.2570 -0.9498
vn 0.1977 0.2586 -0.9455
vn 0.9498 0.2570 -0.1783
vn 0.9455 0.2586 -0.1977
vn 0.6770 0.2886 -0.6770
vn -0.3738 0.1686 0.9121
vn -0.9120 0.1684 0.3740
vn -0.9188 0.0314 0.3935
vn -0.3934 0.0314 0.9188
vn -0.3935 0.0314 -0.9188
vn -0.9188 0.0314 -0.3934
vn -0.9121 0.1686 -0.3738
vn -0.3740 0.1684 -0.9120
vn 0.9188 0.0314 -0.3935
vn 0.3934 0.0314 -0.9188
vn 0.3738 0.1686 -0.9121
vn 0.9120 0.1684 -0.3740
vn 0.3935 0.0314 0.9188
vn 0.9188 0.0314 0.3934
vn 0.9121 0.1686 0.3738
vn 0.3740 0.1684 0.9120
vn 0.7786 -0.5495 -0.3031
vn 0.3150 -0.5496 -0.7738
vn 0.3031 -0.5495 0.7786
vn 0.7738 -0.5496 0.3150
vn -0.7786 -0.5495 0.3031
vn -0.3150 -0.5496 0.7738
vn -0.3031 -0.5495 -0.7786
vn -0.7738 -0.5496 -0.3150
vn 0.2926 -0.6499 -0.7014
vn 0.7055 -0.6502 -0.2822
vn 0.7014 -0.6499 0.2926
vn 0.2822 -0.6502 0.7055
vn -0.2926 -0.6499 0.7014
vn -0.7055 -0.6502 0.2822
vn -0.7014 -0.6499 -0.2926
vn -0.2822 -0.6502 -0.7055
vn -0.1849 0.2707 0.9447
vn -0.6668 0.3330 0.6667
vn -0.6919 0.2061 0.6920
vn -0.1925 0.2359 0.9525
vn -0.9448 0.2707 0.1848
vn -0.9525 0.2359 0.1926
vn -0.1926 0.2359 -0.9525
vn -0.6920 0.2061 -0.6919
vn -0.6667 0.3330 -0.6668
vn -0.1848 0.2707 -0.9448
vn -0.9525 0.2359 -0.1925
vn -0.9447 0.2707 -0.1849
vn 0.9525 0.2359 -0.1926
vn 0.6919 0.2061 -0.6920
vn 0.6668 0.3330 -0.6667
vn 0.9448 0.2707 -0.1848
vn 0.1925 0.2359 -0.9525
vn 0.1849 0.2707 -0.9447
vn 0.1926 0.2359 0.9525
vn 0.6920 0.2061 0.6919
vn 0.6667 0.3330 0.6668
vn 0.1848 0.2707 0.9448
vn 0.9525 0.2359 0.1925
vn 0.9447 0.2707 0.1849
vt 0.157121 0.140242
vt 0.157583 0.089191
vt 0.147721 0.089191
vt 0.147111 0.140242
vt 0.061884 0.140242
vt 0.061422 0.089191
vt 0.071284 0.089191
vt 0.071894 0.140242
vt 0.061884 0.140242
vt 0.147111 0.140242
vt 0.157121 0.140242
vt 0.071894 0.140242
vt 0.147721 0.089191
vt 0.761623 0.628249
vt 0.775576 0.628249
vt 0.781355 0.628249
vt 0.781355 0.628249
vt 0.775576 0.628249
vt 0.761623 0.628249
vt 0.706638 0.628249
vt 0.692685 0.628249
vt 0.686905 0.628249
vt 0.686905 0.628249
vt 0.692685 0.628249
vt 0.706638 0.628249
vt 0.069344 0.146704
vt 0.069344 0.146704
vt 0.070510 0.082740
vt 0.070510 0.082740
vt 0.149661 0.146704
vt 0.149661 0.146704
vt 0.148495 0.082740
vt 0.148495 0.082740
vt 0.150962 0.173211
vt 0.144290 0.173211
vt 0.146378 0.173211
vt 0.156004 0.173211
vt 0.075037 0.146704
vt 0.143968 0.146704
vt 0.144009 0.082740
vt 0.074996 0.082740
vt 0.068043 0.173211
vt 0.074715 0.173211
vt 0.072627 0.173211
vt 0.063001 0.173211
vt 0.144290 0.173211
vt 0.150963 0.173211
vt 0.156004 0.173211
vt 0.146378 0.173211
vt 0.069367 0.056223
vt 0.074311 0.056223
vt 0.071567 0.056223
vt 0.062750 0.056223
vt 0.074305 0.056223
vt 0.069380 0.056223
vt 0.062756 0.056223
vt 0.071565 0.056223
vt 0.074715 0.173211
vt 0.068042 0.173211
vt 0.063001 0.173211
vt 0.072627 0.173211
vt 0.144694 0.056223
vt 0.074305 0.056223
vt 0.147438 0.056223
vt 0.144700 0.056223
vt 0.149625 0.056223
vt 0.156249 0.056223
vt 0.147440 0.056223
vt 0.143968 0.146704
vt 0.075037 0.146704
vt 0.149638 0.056223
vt 0.156255 0.056223
vt 0.156249 0.056223
vt 0.074311 0.056223
vt 0.149638 0.056223
vt 0.142211 0.141739
vt 0.124266 0.478739
vt 0.129822 0.478739
vt 0.155199 0.141739
vt 0.091886 0.478739
vt 0.097441 0.478739
vt 0.104242 0.501880
vt 0.101503 0.501880
vt 0.110854 0.141739
vt 0.079496 0.141739
vt 0.066508 0.141739
vt 0.117465 0.501880
vt 0.120204 0.501880
vt 0.110854 0.501880
vt 0.110854 0.478739
vt 0.074715 0.173211
vt 0.144290 0.173211
vt 0.146378 0.173211
vt 0.156004 0.173211
vt 0.156004 0.173211
vt 0.061884 0.140242
vt 0.072627 0.173211
vt 0.149661 0.146704
vt 0.143968 0.146704
vt 0.149661 0.146704
vt 0.069344 0.146704
vt 0.074996 0.082740
vt 0.070510 0.082740
vt 0.062756 0.056223
vt 0.690734 0.672080
vt 0.692063 0.753206
vt 0.707252 0.753202
vt 0.706403 0.672085
vt 0.685771 0.753202
vt 0.684244 0.672085
vt 0.776198 0.753206
vt 0.777527 0.672080
vt 0.761858 0.672085
vt 0.761009 0.753202
vt 0.759856 0.797038
vt 0.772811 0.797037
vt 0.778177 0.797038
vt 0.759856 0.797037
vt 0.708405 0.797037
vt 0.695450 0.797037
vt 0.690083 0.797037
vt 0.690083 0.797037
vt 0.695450 0.797037
vt 0.708405 0.797037
vt 0.692063 0.753206
vt 0.690734 0.672080
vt 0.707252 0.753202
vt 0.761009 0.753202
vt 0.784017 0.672085
vt 0.782489 0.753202
vt 0.782490 0.753202
vt 0.776198 0.753206
vt 0.782489 0.753202
vt 0.685771 0.753202
vt 0.075037 0.146704
s 1
usemtl Material
f 80/1/1 61/2/2 64/3/3 77/4/4
f 88/5/5 69/6/6 72/7/7 85/8/8
f 69/6/6 88/5/5 73/9/9 60/6/10
f 84/10/11 65/3/12 68/2/13 81/11/14
f 57/7/15 76/12/16 77/10/4 64/3/3
f 61/2/2 80/1/1 81/1/14 68/2/13
f 65/13/12 84/10/11 85/12/8 72/7/7
f 101/14/17 105/15/17 103/16/17 125/17/17 129/18/17 127/19/17 113/20/17 117/21/17 115/22/17 89/23/17 93/24/17 91/25/17
f 32/26/18 45/27/19 44/28/20 25/29/21
f 56/30/22 37/31/23 36/32/24 49/33/25
f 55/34/26 54/35/26 83/36/26 82/37/26
f 48/38/27 53/39/28 52/40/29 41/41/30
f 31/42/26 30/43/26 75/44/26 74/45/26
f 39/46/26 38/47/26 79/48/26 78/49/26
f 43/50/17 42/51/17 71/52/17 70/53/17
f 27/54/17 26/55/17 59/56/17 58/57/17
f 47/58/26 46/59/26 87/60/26 86/61/26
f 34/62/17 27/63/17 58/57/17 63/64/17
f 51/65/17 50/66/17 67/67/17 66/68/17
f 40/69/31 29/70/32 28/41/33 33/40/34
f 50/66/17 35/71/17 62/72/17 67/73/17
f 42/74/17 51/65/17 66/68/17 71/52/17
f 35/75/17 34/62/17 63/64/17 62/72/17
f 15/76/35 16/77/36 2/78/37 1/79/38
f 10/80/39 8/81/40 20/82/41 21/83/42
f 1/79/17 3/76/17 5/84/17 7/85/17 9/86/17 11/85/17 13/84/17 15/76/17
f 17/87/43 18/88/44 24/87/45 23/89/46 22/82/47 21/83/42 20/82/41 19/89/48
f 16/77/36 14/90/49 23/89/46 24/87/45
f 6/90/50 4/77/51 17/87/43 19/89/48
f 12/81/52 10/80/39 21/83/42 22/82/47
f 2/78/37 16/77/36 24/87/45 18/88/44
f 4/77/51 2/78/37 18/88/44 17/87/43
f 8/81/40 6/90/50 19/89/48 20/82/41
f 14/90/49 12/81/52 22/82/47 23/89/46
f 13/84/53 14/90/49 16/77/36 15/76/35
f 11/85/54 12/81/52 14/90/49 13/84/53
f 9/86/55 10/80/39 12/81/52 11/85/54
f 7/85/56 8/81/40 10/80/39 9/86/55
f 5/84/57 6/90/50 8/81/40 7/85/56
f 3/76/58 4/77/51 6/90/50 5/84/57
f 1/79/38 2/78/37 4/77/51 3/76/58
f 30/91/26 39/92/26 78/93/26 75/44/26
f 38/47/26 55/34/26 82/94/26 79/95/26
f 60/6/10 73/96/9 76/12/16 57/7/15
f 54/35/26 47/58/26 86/97/26 83/36/26
f 46/59/26 31/42/26 74/45/26 87/60/26
f 37/98/23 40/99/31 33/40/34 36/32/24
f 53/39/28 56/100/22 49/33/25 52/40/29
f 45/101/19 48/38/27 41/102/30 44/103/20
f 26/55/17 43/50/17 70/53/17 59/104/17
f 94/105/59 100/106/59 96/107/60 92/108/61
f 120/109/62 116/110/63 118/105/64 124/106/64
f 112/111/65 106/112/65 102/113/66 110/114/67
f 131/115/26 135/116/26 133/117/26 107/117/26 111/116/26 109/118/26 95/119/26 99/120/26 97/121/26 119/122/26 123/123/26 121/124/26
f 124/125/64 118/126/64 114/108/68 122/127/69
f 116/110/63 120/109/62 98/109/70 90/110/71
f 92/108/61 96/107/60 110/128/67 102/113/66
f 104/129/72 108/130/73 134/130/74 126/129/75
f 108/131/73 104/129/72 106/112/65 112/132/65
f 132/128/76 128/113/77 130/112/78 136/132/78
f 136/111/78 130/112/78 126/129/75 134/133/74
f 128/113/77 132/128/76 122/107/69 114/108/68
f 90/110/71 98/134/70 100/125/59 94/126/59
f 58/57/17 59/56/17 60/6/79 57/7/80
f 74/45/26 75/44/26 76/12/81 73/96/82
f 78/49/26 79/48/26 80/1/83 77/4/84
f 62/72/17 63/64/17 64/3/85 61/2/86
f 82/37/26 83/36/26 84/10/87 81/11/88
f 66/68/17 67/67/17 68/2/89 65/3/90
f 86/61/26 87/60/26 88/5/91 85/8/92
f 70/53/17 71/52/17 72/7/93 69/6/94
f 57/7/80 64/3/85 63/64/17 58/57/17
f 61/2/86 68/2/89 67/73/17 62/72/17
f 65/13/90 72/7/93 71/52/17 66/68/17
f 69/6/94 60/6/79 59/104/17 70/53/17
f 75/44/26 78/93/26 77/10/84 76/12/81
f 87/60/26 74/45/26 73/9/82 88/5/91
f 85/12/92 84/10/87 83/36/26 86/97/26
f 81/1/88 80/1/83 79/95/26 82/94/26
f 28/41/95 25/29/96 26/55/17 27/54/17
f 36/32/97 33/40/98 34/62/17 35/75/17
f 52/40/99 49/33/100 50/66/17 51/65/17
f 44/103/101 41/102/102 42/51/17 43/50/17
f 27/63/17 34/62/17 33/40/98 28/41/95
f 35/71/17 50/66/17 49/33/100 36/32/97
f 51/65/17 42/74/17 41/41/102 52/40/99
f 43/50/17 26/55/17 25/29/96 44/28/101
f 32/26/103 29/135/104 30/43/26 31/42/26
f 40/99/105 37/98/106 38/47/26 39/46/26
f 56/100/107 53/39/108 54/35/26 55/34/26
f 48/38/109 45/101/110 46/59/26 47/58/26
f 29/70/104 40/69/105 39/92/26 30/91/26
f 45/27/110 32/26/103 31/42/26 46/59/26
f 47/58/26 54/35/26 53/39/108 48/38/109
f 55/34/26 38/47/26 37/31/106 56/30/107
f 93/24/17 89/23/17 90/110/111 94/126/112
f 97/121/26 99/120/26 100/125/113 98/134/114
f 91/25/17 93/24/17 94/105/112 92/108/115
f 99/120/26 95/119/26 96/107/116 100/106/113
f 111/116/26 107/117/26 108/131/117 112/132/118
f 103/16/17 105/15/17 106/112/119 104/129/120
f 109/118/26 111/116/26 112/111/118 110/114/121
f 105/15/17 101/14/17 102/113/122 106/112/119
f 135/116/26 131/115/26 132/128/123 136/132/124
f 127/19/17 129/18/17 130/112/125 128/113/126
f 133/117/26 135/116/26 136/111/124 134/133/127
f 129/18/17 125/17/17 126/129/128 130/112/125
f 123/123/26 119/122/26 120/109/129 124/106/130
f 115/22/17 117/21/17 118/105/131 116/110/132
f 121/124/26 123/123/26 124/125/130 122/127/133
f 117/21/17 113/20/17 114/108/134 118/126/131
f 92/108/115 102/113/122 101/14/17 91/25/17
f 104/129/120 126/129/128 125/17/17 103/16/17
f 128/113/126 114/108/134 113/20/17 127/19/17
f 116/110/132 90/110/111 89/23/17 115/22/17
f 95/119/26 109/118/26 110/128/121 96/107/116
f 119/122/26 97/121/26 98/109/114 120/109/129
f 122/107/133 132/128/123 131/115/26 121/124/26
f 134/130/127 108/130/117 107/117/26 133/117/26
f 29/135/32 32/26/18 25/29/21 28/41/33
o Cone2
v -0.017653 -0.000000 -0.174037
v -0.041714 -0.000000 -0.198627
v -0.028177 0.031413 -0.203776
v -0.011722 0.031413 -0.187250
v -0.041339 -0.000000 -0.233029
v -0.016749 -0.000000 -0.257090
v -0.011600 0.031413 -0.243553
v -0.028126 0.031413 -0.227098
v 0.041339 -0.000000 -0.197723
v 0.016749 -0.000000 -0.173662
v 0.011600 0.031413 -0.187199
v 0.028126 0.031413 -0.203654
v 0.017653 -0.000000 -0.256715
v 0.041714 -0.000000 -0.232125
v 0.028177 0.031413 -0.226976
v 0.011722 0.031413 -0.243502
v -0.061332 0.000000 -0.166426
v -0.048950 0.000000 -0.154044
v -0.048950 0.000000 -0.276708
v -0.061332 0.000000 -0.264326
v 0.061332 0.000000 -0.264326
v 0.048950 0.000000 -0.276708
v 0.048950 0.000000 -0.154044
v 0.061332 0.000000 -0.166426
v -0.000000 0.031413 -0.260446
v -0.000000 0.296378 -0.234654
v 0.031869 0.031413 -0.247245
v 0.013631 0.296378 -0.229007
v 0.045070 0.031413 -0.215376
v 0.019278 0.296378 -0.215376
v 0.031869 0.031413 -0.183507
v 0.013631 0.296378 -0.201745
v -0.000000 0.031413 -0.170306
v -0.000000 0.296378 -0.196098
v -0.031869 0.031413 -0.183507
v -0.013631 0.296378 -0.201745
v -0.045070 0.031413 -0.215376
v -0.019278 0.296378 -0.215376
v -0.031869 0.031413 -0.247245
v -0.013631 0.296378 -0.229007
v 0.007115 0.304919 -0.222491
v -0.000000 0.304919 -0.225438
v 0.010062 0.304919 -0.215376
v 0.007115 0.304919 -0.208261
v -0.000000 0.304919 -0.205314
v -0.007115 0.304919 -0.208261
v -0.010062 0.304919 -0.215376
v -0.007115 0.304919 -0.222491
v -0.047946 0.017812 -0.154805
v -0.035681 0.031413 -0.167813
v -0.047572 0.031413 -0.179714
v -0.060571 0.017812 -0.167430
v -0.060571 0.017812 -0.263322
v -0.047563 0.031413 -0.251057
v -0.035662 0.031413 -0.262948
v -0.047946 0.017812 -0.275947
v 0.047946 0.017812 -0.275947
v 0.035681 0.031413 -0.262939
v 0.047572 0.031413 -0.251038
v 0.060571 0.017812 -0.263322
v 0.060571 0.017812 -0.167430
v 0.047563 0.031413 -0.179695
v 0.035662 0.031413 -0.167804
v 0.047946 0.017812 -0.154805
v 0.007115 0.350906 -0.222491
v 0.000000 0.350906 -0.225438
v 0.010062 0.350906 -0.215376
v 0.007115 0.350906 -0.208261
v 0.000000 0.350906 -0.205314
v -0.007115 0.350906 -0.208261
v -0.010062 0.350906 -0.215376
v -0.007115 0.350906 -0.222491
v -0.017100 0.324580 -0.215376
v -0.012092 0.324580 -0.227468
v -0.000000 0.324580 -0.198276
v -0.012092 0.324580 -0.203284
v 0.017100 0.324580 -0.215376
v 0.012092 0.324580 -0.203284
v -0.000000 0.324580 -0.232476
v 0.012092 0.324580 -0.227468
v -0.012092 0.344305 -0.227468
v -0.007115 0.316116 -0.222491
v 0.000000 0.316116 -0.225438
v -0.017100 0.344305 -0.215376
v -0.012092 0.344305 -0.203284
v -0.007115 0.316116 -0.208261
v -0.010062 0.316116 -0.215376
v 0.000000 0.344305 -0.198276
v 0.012092 0.344305 -0.203284
v 0.007115 0.316116 -0.208261
v -0.000000 0.316116 -0.205314
v 0.017100 0.344305 -0.215376
v 0.000000 0.344305 -0.232476
v 0.007115 0.316116 -0.222491
v 0.010062 0.316116 -0.215376
v 0.012092 0.344305 -0.227468
vn -0.9189 0.0613 0.3898
vn -0.9255 0.0606 0.3738
vn -0.9255 0.0606 -0.3738
vn -0.9189 0.0613 -0.3898
vn -0.0000 1.0000 -0.0000
vn -0.3898 0.0613 -0.9189
vn -0.3738 0.0606 -0.9255
vn 0.3738 0.0606 -0.9255
vn 0.3898 0.0613 -0.9189
vn 0.9189 0.0613 -0.3898
vn 0.9255 0.0606 -0.3738
vn 0.9255 0.0606 0.3738
vn 0.9189 0.0613 0.3898
vn -0.0000 -1.0000 -0.0000
vn -0.8373 -0.4186 -0.3516
vn -0.8407 -0.4186 0.3435
vn -0.8423 -0.4186 0.3396
vn -0.8357 -0.4186 -0.3555
vn 0.8374 -0.4186 0.3516
vn 0.8407 -0.4186 -0.3435
vn 0.8423 -0.4186 -0.3396
vn 0.8357 -0.4186 0.3555
vn -0.3516 -0.4186 0.8374
vn -0.3555 -0.4186 0.8357
vn 0.3516 -0.4186 -0.8374
vn -0.3435 -0.4186 -0.8407
vn -0.3396 -0.4186 -0.8423
vn 0.3555 -0.4186 -0.8357
vn 0.3435 -0.4186 0.8407
vn 0.3396 -0.4186 0.8423
vn -0.7038 0.0969 -0.7038
vn -0.6440 0.4128 -0.6440
vn -0.0000 0.4128 -0.9108
vn -0.0000 0.0969 -0.9953
vn -0.0000 0.4128 0.9108
vn 0.6440 0.4128 0.6440
vn 0.6346 0.4411 0.6346
vn -0.0000 0.4411 0.8975
vn -0.6346 0.4411 -0.6346
vn -0.8975 0.4411 -0.0000
vn -0.9291 -0.3697 -0.0000
vn -0.6570 -0.3697 -0.6570
vn -0.9108 0.4128 -0.0000
vn 0.9108 0.4128 -0.0000
vn 0.6440 0.4128 -0.6440
vn 0.6346 0.4411 -0.6346
vn 0.8975 0.4411 -0.0000
vn -0.6440 0.4128 0.6440
vn -0.6346 0.4411 0.6346
vn -0.0000 0.4411 -0.8975
vn -0.9953 0.0969 -0.0000
vn -0.7038 0.0969 0.7038
vn -0.0000 0.0969 0.9953
vn 0.7038 0.0969 0.7038
vn 0.9953 0.0969 -0.0000
vn 0.7038 0.0969 -0.7038
vn 0.3898 0.0613 0.9189
vn 0.3738 0.0606 0.9255
vn -0.3738 0.0606 0.9255
vn -0.3898 0.0613 0.9189
vn -0.1891 0.7623 0.6189
vn -0.6191 0.7623 0.1888
vn -0.5625 0.7815 0.2701
vn -0.2701 0.7815 0.5625
vn -0.6189 0.7623 -0.1891
vn -0.1888 0.7623 -0.6191
vn -0.2701 0.7815 -0.5625
vn -0.5625 0.7815 -0.2701
vn 0.1891 0.7623 -0.6189
vn 0.6191 0.7623 -0.1888
vn 0.5625 0.7815 -0.2701
vn 0.2701 0.7815 -0.5625
vn 0.6189 0.7623 0.1891
vn 0.1888 0.7623 0.6191
vn 0.2701 0.7815 0.5625
vn 0.5625 0.7815 0.2701
vn 0.3123 0.8972 -0.3123
vn -0.0000 0.8972 -0.4416
vn -0.3123 0.8972 -0.3123
vn -0.4416 0.8972 -0.0000
vn -0.3123 0.8972 0.3123
vn -0.0000 0.8972 0.4416
vn 0.3123 0.8972 0.3123
vn 0.4416 0.8972 -0.0000
vn -0.0000 -0.3697 0.9291
vn -0.6570 -0.3697 0.6570
vn 0.9291 -0.3697 -0.0000
vn 0.6570 -0.3697 0.6570
vn 0.6570 -0.3697 -0.6570
vn -0.0000 -0.3697 -0.9291
vn -0.6709 -0.3160 0.6709
vn -0.6581 0.3659 0.6581
vn -0.9307 0.3659 -0.0000
vn -0.9488 -0.3160 -0.0000
vn -0.0000 0.3659 -0.9307
vn -0.6581 0.3659 -0.6581
vn 0.6709 -0.3160 -0.6709
vn 0.6581 0.3659 -0.6581
vn 0.9307 0.3659 -0.0000
vn 0.9488 -0.3160 -0.0000
vn -0.6709 -0.3160 -0.6709
vn -0.0000 -0.3160 -0.9488
vn 0.6709 -0.3160 0.6709
vn -0.0000 -0.3160 0.9488
vn -0.0000 0.3659 0.9307
vn 0.6581 0.3659 0.6581
vt 0.341570 0.696699
vt 0.342362 0.763034
vt 0.418001 0.763034
vt 0.418793 0.696699
vt 0.414630 0.813687
vt 0.345733 0.813687
vt 0.343487 0.813687
vt 0.416875 0.813687
vt 0.416875 0.813687
vt 0.343487 0.813687
vt 0.420823 0.813687
vt 0.426243 0.813687
vt 0.426244 0.813687
vt 0.339539 0.813687
vt 0.334119 0.813687
vt 0.334119 0.813687
vt 0.428560 0.696699
vt 0.427960 0.763034
vt 0.345658 0.696699
vt 0.341673 0.696699
vt 0.331802 0.696699
vt 0.418690 0.696699
vt 0.414705 0.696699
vt 0.354427 0.115894
vt 0.333018 0.445004
vt 0.339646 0.445004
vt 0.369923 0.115894
vt 0.294386 0.445004
vt 0.301014 0.445004
vt 0.308663 0.455613
vt 0.305204 0.455613
vt 0.325368 0.455613
vt 0.317016 0.455613
vt 0.317016 0.469520
vt 0.325368 0.469520
vt 0.317016 0.445004
vt 0.328828 0.455613
vt 0.317016 0.115894
vt 0.279605 0.115894
vt 0.264109 0.115894
vt 0.332403 0.763034
vt 0.416875 0.813687
vt 0.325368 0.512733
vt 0.328828 0.512733
vt 0.317016 0.512733
vt 0.308663 0.512733
vt 0.305204 0.512733
vt 0.305204 0.469520
vt 0.308663 0.469520
vt 0.328828 0.469520
vt 0.302821 0.480034
vt 0.302821 0.504533
vt 0.317016 0.504533
vt 0.317016 0.480034
vt 0.337090 0.504533
vt 0.331211 0.504533
vt 0.331211 0.480034
vt 0.337090 0.480034
vt 0.296942 0.480034
vt 0.296942 0.504533
s 1
usemtl Material
f 153/136/135 188/137/136 189/138/137 156/139/138
f 151/140/139 148/141/139 198/142/139 195/143/139
f 139/141/139 144/140/139 190/144/139 187/145/139
f 143/146/139 152/146/139 194/147/139 191/148/139
f 147/149/139 140/149/139 186/150/139 199/151/139
f 155/152/140 192/153/141 193/153/142 158/152/143
f 157/139/144 196/138/145 197/137/146 160/136/147
f 138/154/148 137/155/148 154/156/148 153/136/148
f 142/157/148 141/158/148 156/139/148 155/152/148
f 150/158/148 149/157/148 158/152/148 157/139/148
f 146/155/148 145/154/148 160/136/148 159/156/148
f 141/158/148 138/154/148 153/136/148 156/139/148
f 149/157/148 142/157/148 155/152/148 158/152/148
f 145/154/148 150/158/148 157/139/148 160/136/148
f 137/155/148 146/155/148 159/156/148 154/156/148
f 148/141/149 151/140/150 150/158/151 145/154/152
f 144/140/153 139/141/154 138/154/155 141/158/156
f 151/140/150 152/146/157 149/157/158 150/158/151
f 140/149/159 147/149/160 146/155/161 137/155/162
f 152/146/157 143/146/163 142/157/164 149/157/158
f 147/149/160 148/141/149 145/154/152 146/155/161
f 143/146/163 144/140/153 141/158/156 142/157/164
f 175/159/165 176/160/166 162/161/167 161/162/168
f 170/163/169 168/164/170 180/165/171 181/166/172
f 184/167/173 183/168/174 223/169/175 218/170/176
f 176/160/166 174/171/177 183/168/174 184/167/173
f 166/171/178 164/160/179 177/167/180 179/168/181
f 172/164/182 170/163/169 181/166/172 182/165/183
f 162/161/167 176/160/166 184/167/173 178/172/184
f 164/160/179 162/161/167 178/172/184 177/167/180
f 168/164/170 166/171/178 179/168/181 180/165/171
f 174/171/177 172/164/182 182/165/183 183/168/174
f 173/173/185 174/171/177 176/160/166 175/159/165
f 171/174/186 172/164/182 174/171/177 173/173/185
f 169/175/187 170/163/169 172/164/182 171/174/186
f 167/174/188 168/164/170 170/163/169 169/175/187
f 165/173/189 166/171/178 168/164/170 167/174/188
f 163/159/190 164/160/179 166/171/178 165/173/189
f 161/162/168 162/161/167 164/160/179 163/159/190
f 159/156/191 200/176/192 185/176/193 154/156/194
f 192/153/141 155/152/140 156/139/138 189/138/137
f 196/138/145 157/139/144 158/152/143 193/153/142
f 200/176/192 159/156/191 160/136/147 197/137/146
f 144/140/139 143/146/139 191/148/139 190/177/139
f 140/149/139 139/141/139 187/145/139 186/150/139
f 148/141/139 147/149/139 199/151/139 198/142/139
f 152/146/139 151/140/139 195/143/139 194/147/139
f 139/141/154 140/149/159 137/155/162 138/154/155
f 186/150/195 187/145/196 188/137/197 185/176/198
f 190/177/199 191/148/200 192/153/201 189/138/202
f 194/147/203 195/143/204 196/138/205 193/153/206
f 198/142/207 199/151/208 200/176/209 197/137/210
f 187/145/196 190/144/199 189/138/202 188/137/197
f 199/151/208 186/150/195 185/176/198 200/176/209
f 197/137/210 196/138/205 195/143/204 198/142/207
f 193/153/206 192/153/201 191/148/200 194/147/203
f 154/156/194 185/176/193 188/137/136 153/136/135
f 201/178/211 202/179/212 208/178/213 207/180/214 206/181/215 205/182/216 204/181/217 203/180/218
f 182/165/183 181/166/172 227/183/219 222/184/220
f 180/165/171 179/168/181 231/169/221 226/184/222
f 179/168/181 177/167/180 230/170/223 231/169/221
f 178/172/184 184/167/173 218/170/176 219/185/224
f 183/168/174 182/165/183 222/184/220 223/169/175
f 181/166/172 180/165/171 226/184/222 227/183/219
f 212/186/225 221/187/226 220/188/227 209/189/228
f 208/178/213 202/179/212 229/190/229 217/191/230
f 216/192/231 232/191/232 228/188/233 213/189/234
f 210/192/235 217/191/230 229/190/229 215/193/236
f 177/167/180 178/172/184 219/185/224 230/170/223
f 227/183/219 226/184/222 214/186/237 211/194/238
f 209/189/228 220/188/227 217/191/230 210/192/235
f 211/194/238 224/195/239 221/187/226 212/186/225
f 213/189/234 228/188/233 225/187/240 214/186/237
f 222/184/220 227/183/219 211/194/238 212/186/225
f 207/180/214 208/178/213 217/191/230 220/188/227
f 230/170/223 219/185/224 215/193/236 216/192/231
f 206/181/215 207/180/214 220/188/227 221/187/226
f 231/169/221 230/170/223 216/192/231 213/189/234
f 205/182/216 206/181/215 221/187/226 224/195/239
f 219/185/224 218/170/176 210/192/235 215/193/236
f 215/193/236 229/190/229 232/191/232 216/192/231
f 214/186/237 225/187/240 224/195/239 211/194/238
f 202/179/212 201/178/211 232/191/232 229/190/229
f 201/178/211 203/180/218 228/188/233 232/191/232
f 223/169/175 222/184/220 212/186/225 209/189/228
f 203/180/218 204/181/217 225/187/240 228/188/233
f 226/184/222 231/169/221 213/189/234 214/186/237
f 218/170/176 223/169/175 209/189/228 210/192/235
f 204/181/217 205/182/216 224/195/239 225/187/240
o Cone3
v 0.217162 -0.000000 0.055512
v 0.184852 -0.000000 0.022491
v 0.203030 0.016499 0.015577
v 0.225127 0.016499 0.037769
v 0.185355 -0.000000 -0.023705
v 0.218376 -0.000000 -0.056015
v 0.225290 0.016499 -0.037837
v 0.203098 0.016499 -0.015740
v 0.296379 -0.000000 0.023705
v 0.263358 -0.000000 0.056015
v 0.256444 0.016499 0.037837
v 0.278636 0.016499 0.015740
v 0.264572 -0.000000 -0.055512
v 0.296882 -0.000000 -0.022491
v 0.278704 0.016499 -0.015577
v 0.256607 0.016499 -0.037769
v 0.158507 0.000000 0.065732
v 0.175135 0.000000 0.082360
v 0.175135 0.000000 -0.082360
v 0.158507 0.000000 -0.065732
v 0.323226 0.000000 -0.065732
v 0.306599 0.000000 -0.082360
v 0.306599 0.000000 0.082360
v 0.323226 0.000000 0.065732
v 0.240867 0.016499 -0.074632
v 0.240867 0.158291 -0.024481
v 0.293640 0.016499 -0.052773
v 0.258178 0.158291 -0.017311
v 0.315499 0.016499 0.000000
v 0.265348 0.158291 0.000000
v 0.293640 0.016499 0.052773
v 0.258178 0.158291 0.017311
v 0.240867 0.016499 0.074632
v 0.240867 0.158291 0.024481
v 0.188094 0.016499 0.052773
v 0.223556 0.158291 0.017311
v 0.166235 0.016499 -0.000000
v 0.216386 0.158291 -0.000000
v 0.188094 0.016499 -0.052773
v 0.223556 0.158291 -0.017311
v 0.249400 0.174847 -0.008533
v 0.240867 0.174847 -0.012068
v 0.252935 0.174847 0.000000
v 0.249400 0.174847 0.008533
v 0.240867 0.174847 0.012068
v 0.232333 0.174847 0.008533
v 0.228799 0.174847 -0.000000
v 0.232333 0.174847 -0.008533
v 0.177513 0.016499 0.080556
v 0.160311 0.016499 0.063354
v 0.160311 0.016499 -0.063354
v 0.177513 0.016499 -0.080556
v 0.304221 0.016499 -0.080556
v 0.321423 0.016499 -0.063354
v 0.321423 0.016499 0.063354
v 0.304221 0.016499 0.080556
v 0.299542 0.016506 0.045747
v 0.300435 0.023436 0.049081
v 0.314254 0.016506 0.049689
v 0.311813 0.023436 0.052130
v 0.318196 0.016506 0.064401
v 0.314862 0.023436 0.063508
v 0.307426 0.016506 0.075171
v 0.306533 0.023436 0.071837
v 0.292714 0.016506 0.071229
v 0.295155 0.023436 0.068788
v 0.288772 0.016506 0.056517
v 0.292106 0.023436 0.057411
v 0.286614 0.016506 -0.058675
v 0.289948 0.023436 -0.059568
v 0.290556 0.016506 -0.073387
v 0.292997 0.023436 -0.070946
v 0.305268 0.016506 -0.077329
v 0.304375 0.023436 -0.073995
v 0.316038 0.016506 -0.066559
v 0.312704 0.023436 -0.065666
v 0.312096 0.016506 -0.051847
v 0.309655 0.023436 -0.054288
v 0.297384 0.016506 -0.047905
v 0.298277 0.023436 -0.051239
v 0.182192 0.016506 -0.045747
v 0.181299 0.023436 -0.049081
v 0.167480 0.016506 -0.049689
v 0.169921 0.023436 -0.052130
v 0.163538 0.016506 -0.064401
v 0.166872 0.023436 -0.063508
v 0.174308 0.016506 -0.075171
v 0.175201 0.023436 -0.071837
v 0.189020 0.016506 -0.071229
v 0.186579 0.023436 -0.068788
v 0.192962 0.016506 -0.056517
v 0.189628 0.023436 -0.057410
v 0.195120 0.016506 0.058675
v 0.191786 0.023436 0.059568
v 0.191178 0.016506 0.073387
v 0.188737 0.023436 0.070946
v 0.176466 0.016506 0.077329
v 0.177359 0.023436 0.073995
v 0.165696 0.016506 0.066559
v 0.169030 0.023436 0.065666
v 0.169638 0.016506 0.051847
v 0.172079 0.023436 0.054288
v 0.184350 0.016506 0.047905
v 0.183456 0.023436 0.051239
vn 0.3969 0.1561 0.9045
vn 0.3569 0.1522 0.9216
vn -0.3569 0.1522 0.9216
vn -0.3969 0.1561 0.9045
vn 0.9045 0.1561 -0.3969
vn 0.9216 0.1522 -0.3569
vn 0.9216 0.1522 0.3569
vn 0.9045 0.1561 0.3969
vn -0.9045 0.1561 0.3969
vn -0.9216 0.1522 0.3569
vn -0.9216 0.1522 -0.3569
vn -0.9045 0.1561 -0.3969
vn -0.3969 0.1561 -0.9045
vn -0.3569 0.1522 -0.9216
vn 0.3569 0.1522 -0.9216
vn 0.3969 0.1561 -0.9045
vn -0.0000 -1.0000 -0.0000
vn -0.5970 -0.7625 -0.2494
vn -0.5985 -0.7625 0.2458
vn -0.6006 -0.7625 0.2406
vn -0.5948 -0.7625 -0.2546
vn 0.5970 -0.7625 0.2494
vn 0.5985 -0.7625 -0.2458
vn 0.6006 -0.7625 -0.2406
vn 0.5948 -0.7625 0.2546
vn -0.2494 -0.7625 0.5970
vn -0.2546 -0.7625 0.5948
vn 0.2494 -0.7625 -0.5970
vn -0.2458 -0.7625 -0.5985
vn -0.2406 -0.7625 -0.6006
vn 0.2546 -0.7625 -0.5948
vn 0.2458 -0.7625 0.5985
vn 0.2406 -0.7625 0.6006
vn -0.6666 0.3334 -0.6666
vn -0.6288 0.4573 -0.6288
vn -0.0000 0.4573 -0.8893
vn -0.0000 0.3334 -0.9428
vn -0.0000 0.4573 0.8893
vn 0.6288 0.4573 0.6288
vn 0.3730 0.8495 0.3730
vn -0.0000 0.8495 0.5275
vn 0.3730 0.8495 -0.3730
vn -0.0000 0.8495 -0.5275
vn -0.3730 0.8495 -0.3730
vn -0.5275 0.8495 -0.0000
vn -0.3730 0.8495 0.3730
vn 0.5275 0.8495 -0.0000
vn -0.8893 0.4573 -0.0000
vn 0.8893 0.4573 -0.0000
vn 0.6288 0.4573 -0.6288
vn -0.6288 0.4573 0.6288
vn -0.9428 0.3334 -0.0000
vn -0.6666 0.3334 0.6666
vn -0.0000 0.3334 0.9428
vn 0.6666 0.3334 0.6666
vn 0.9428 0.3334 -0.0000
vn 0.6666 0.3334 -0.6666
vn -0.0000 1.0000 -0.0000
vn -0.2317 0.4458 -0.8646
vn -0.1632 0.7763 -0.6089
vn 0.4457 0.7763 -0.4457
vn 0.6329 0.4458 -0.6329
vn 0.6089 0.7763 0.1632
vn 0.8646 0.4458 0.2317
vn 0.1632 0.7763 0.6089
vn 0.2317 0.4458 0.8646
vn -0.4457 0.7763 0.4457
vn -0.6329 0.4458 0.6329
vn -0.6089 0.7763 -0.1632
vn -0.8646 0.4458 -0.2317
vn -0.8646 0.4458 0.2317
vn -0.6089 0.7763 0.1632
vn -0.4457 0.7763 -0.4457
vn -0.6329 0.4458 -0.6329
vn 0.1632 0.7763 -0.6089
vn 0.2317 0.4458 -0.8646
vn 0.6089 0.7763 -0.1632
vn 0.8646 0.4458 -0.2317
vn 0.4457 0.7763 0.4457
vn 0.6329 0.4458 0.6329
vn -0.1632 0.7763 0.6089
vn -0.2317 0.4458 0.8646
vt 0.666726 0.265181
vt 0.667786 0.382169
vt 0.753717 0.265181
vt 0.752320 0.382169
vt 0.677891 0.382169
vt 0.676494 0.265181
vt 0.763484 0.265181
vt 0.762425 0.382169
vt 0.680582 0.265181
vt 0.676597 0.265181
vt 0.753614 0.265181
vt 0.749629 0.265181
vt 0.680656 0.382169
vt 0.749554 0.382169
vt 0.755747 0.382169
vt 0.674463 0.382169
vt 0.755747 0.382169
vt 0.560127 0.141739
vt 0.542182 0.478739
vt 0.547738 0.478739
vt 0.573115 0.141739
vt 0.509802 0.478739
vt 0.515357 0.478739
vt 0.522158 0.501880
vt 0.519419 0.501880
vt 0.535381 0.501880
vt 0.538120 0.501880
vt 0.528770 0.501880
vt 0.528770 0.478739
vt 0.528770 0.141739
vt 0.497413 0.141739
vt 0.484424 0.141739
vt 0.877202 0.130307
vt 0.871794 0.206242
vt 0.866849 0.206242
vt 0.870808 0.130307
vt 0.848395 0.206242
vt 0.846946 0.130307
vt 0.834886 0.206242
vt 0.829479 0.130307
vt 0.839831 0.206242
vt 0.835872 0.130307
vt 0.858285 0.206242
vt 0.859734 0.130307
s 1
usemtl Material
f 255/196/241 288/197/242 281/197/243 250/196/244
f 253/198/245 286/199/246 287/200/247 256/201/248
f 249/201/249 282/200/250 283/199/251 252/198/252
f 251/202/253 284/203/254 285/203/255 254/202/256
f 250/196/244 281/197/243 282/200/250 249/201/249
f 284/203/254 251/202/253 252/198/252 283/199/251
f 286/199/246 253/198/245 254/202/256 285/203/255
f 288/197/242 255/196/241 256/201/248 287/200/247
f 234/204/257 233/205/257 250/196/257 249/201/257
f 238/206/257 237/207/257 252/198/257 251/202/257
f 246/207/257 245/206/257 254/202/257 253/198/257
f 242/205/257 241/204/257 256/201/257 255/196/257
f 237/207/257 234/204/257 249/201/257 252/198/257
f 245/206/257 238/206/257 251/202/257 254/202/257
f 241/204/257 246/207/257 253/198/257 256/201/257
f 233/205/257 242/205/257 255/196/257 250/196/257
f 244/208/258 247/209/259 246/207/260 241/204/261
f 240/209/262 235/208/263 234/204/264 237/207/265
f 247/209/259 248/210/266 245/206/267 246/207/260
f 236/211/268 243/211/269 242/205/270 233/205/271
f 248/210/266 239/212/272 238/206/273 245/206/267
f 243/211/269 244/208/258 241/204/261 242/205/270
f 239/212/272 240/209/262 237/207/265 238/206/273
f 271/213/274 272/214/275 258/215/276 257/216/277
f 266/217/278 264/218/279 276/219/280 277/220/281
f 273/221/282 274/222/283 280/221/284 279/223/285 278/219/286 277/220/281 276/219/280 275/223/287
f 272/214/275 270/224/288 279/223/285 280/221/284
f 262/224/289 260/214/290 273/221/282 275/223/287
f 268/218/291 266/217/278 277/220/281 278/219/286
f 258/215/276 272/214/275 280/221/284 274/222/283
f 260/214/290 258/215/276 274/222/283 273/221/282
f 264/218/279 262/224/289 275/223/287 276/219/280
f 270/224/288 268/218/291 278/219/286 279/223/285
f 269/225/292 270/224/288 272/214/275 271/213/274
f 267/226/293 268/218/291 270/224/288 269/225/292
f 265/227/294 266/217/278 268/218/291 267/226/293
f 263/226/295 264/218/279 266/217/278 265/227/294
f 261/225/296 262/224/289 264/218/279 263/226/295
f 259/213/297 260/214/290 262/224/289 261/225/296
f 257/216/277 258/215/276 260/214/290 259/213/297
f 236/211/298 235/208/298 282/200/298 281/197/298
f 240/209/298 239/212/298 284/203/298 283/199/298
f 248/210/298 247/209/298 286/199/298 285/203/298
f 244/208/298 243/211/298 288/197/298 287/200/298
f 235/208/298 240/209/298 283/199/298 282/200/298
f 243/211/298 236/211/298 281/197/298 288/197/298
f 247/209/298 244/208/298 287/200/298 286/199/298
f 239/212/298 248/210/298 285/203/298 284/203/298
f 235/208/263 236/211/268 233/205/271 234/204/264
f 269/225/257 271/213/257 257/216/257 259/213/257 261/225/257 263/226/257 265/227/257 267/226/257
f 289/228/299 290/229/300 292/230/301 291/231/302
f 291/231/302 292/230/301 294/232/303 293/233/304
f 293/233/304 294/232/303 296/234/305 295/235/306
f 295/235/306 296/234/305 298/236/307 297/237/308
f 292/230/301 290/229/300 300/238/309 298/236/307 296/234/305 294/232/303
f 297/237/308 298/236/307 300/238/309 299/239/310
f 299/239/310 300/238/309 290/229/300 289/228/299
f 289/228/257 291/231/257 293/233/257 295/235/257 297/237/257 299/239/257
f 301/228/311 302/229/312 304/230/313 303/231/314
f 303/231/314 304/230/313 306/232/315 305/233/316
f 305/233/316 306/232/315 308/234/317 307/235/318
f 307/235/318 308/234/317 310/236/319 309/237/320
f 304/230/313 302/229/312 312/238/321 310/236/319 308/234/317 306/232/315
f 309/237/320 310/236/319 312/238/321 311/239/322
f 311/239/322 312/238/321 302/229/312 301/228/311
f 301/228/257 303/231/257 305/233/257 307/235/257 309/237/257 311/239/257
f 313/228/306 314/229/305 316/230/307 315/231/308
f 315/231/308 316/230/307 318/232/309 317/233/310
f 317/233/310 318/232/309 320/234/300 319/235/299
f 319/235/299 320/234/300 322/236/301 321/237/302
f 316/230/307 314/229/305 324/238/303 322/236/301 320/234/300 318/232/309
f 321/237/302 322/236/301 324/238/303 323/239/304
f 323/239/304 324/238/303 314/229/305 313/228/306
f 313/228/257 315/231/257 317/233/257 319/235/257 321/237/257 323/239/257
f 325/228/318 326/229/317 328/230/319 327/231/320
f 327/231/320 328/230/319 330/232/321 329/233/322
f 329/233/322 330/232/321 332/234/312 331/235/311
f 331/235/311 332/234/312 334/236/313 333/237/314
f 328/230/319 326/229/317 336/238/315 334/236/313 332/234/312 330/232/321
f 333/237/314 334/236/313 336/238/315 335/239/316
f 335/239/316 336/238/315 326/229/317 325/228/318
f 325/228/257 327/231/257 329/233/257 331/235/257 333/237/257 335/239/257
